<?xml version="1.0" encoding="utf-8" standalone="no"?>
<!DOCTYPE svg PUBLIC "-//W3C//DTD SVG 1.1//EN"
  "http://www.w3.org/Graphics/SVG/1.1/DTD/svg11.dtd">
<svg xmlns:xlink="http://www.w3.org/1999/xlink" width="511.56pt" height="619.344pt" viewBox="0 0 511.56 619.344" xmlns="http://www.w3.org/2000/svg" version="1.1">
 <metadata>
  <rdf:RDF xmlns:dc="http://purl.org/dc/elements/1.1/" xmlns:cc="http://creativecommons.org/ns#" xmlns:rdf="http://www.w3.org/1999/02/22-rdf-syntax-ns#">
   <cc:Work>
    <dc:type rdf:resource="http://purl.org/dc/dcmitype/StillImage"/>
    <dc:date>2026-10-09T03:16:37.379335</dc:date>
    <dc:format>image/svg+xml</dc:format>
    <dc:creator>
     <cc:Agent>
      <dc:title>Matplotlib v3.11.2, https://matplotlib.org/</dc:title>
     </cc:Agent>
    </dc:creator>
   </cc:Work>
  </rdf:RDF>
 </metadata>
 <defs>
  <style type="text/css">*{stroke-linejoin: round; stroke-linecap: butt}</style>
 </defs>
 <g id="figure_1">
  <g id="patch_1">
   <path d="M 0 619.344 
L 511.56 619.344 
L 511.56 0 
L 0 0 
z
" style="fill: #ffffff"/>
  </g>
  <g id="axes_1">
   <g id="patch_2">
    <path d="M 40.407613 105.733788 
L 244.219256 105.733788 
Q 245.884383 105.733788 245.884383 103.685308 
L 245.884383 27.950066 
Q 245.884383 25.901585 244.219256 25.901585 
L 40.407613 25.901585 
Q 38.742485 25.901585 38.742485 27.950066 
L 38.742485 103.685308 
Q 38.742485 105.733788 40.407613 105.733788 
z
" style="fill: #f2f4f5; stroke: #7f8c8d; stroke-width: 1.35; stroke-linejoin: miter"/>
   </g>
   <g id="patch_3">
    <path d="M 267.340744 105.733788 
L 471.152387 105.733788 
Q 472.817515 105.733788 472.817515 103.685308 
L 472.817515 27.950066 
Q 472.817515 25.901585 471.152387 25.901585 
L 267.340744 25.901585 
Q 265.675617 25.901585 265.675617 27.950066 
L 265.675617 103.685308 
Q 265.675617 105.733788 267.340744 105.733788 
z
" style="fill: #eaf4fa; stroke: #1b4f72; stroke-width: 1.7; stroke-linejoin: miter"/>
   </g>
   <g id="patch_4">
    <path d="M 81.322182 174.504198 
L 430.237818 174.504198 
Q 431.902946 174.504198 431.902946 172.455717 
L 431.902946 120.131678 
Q 431.902946 118.083198 430.237818 118.083198 
L 81.322182 118.083198 
Q 79.657054 118.083198 79.657054 120.131678 
L 79.657054 172.455717 
Q 79.657054 174.504198 81.322182 174.504198 
z
" style="fill: #eaf4fa; stroke: #1b4f72; stroke-width: 1.55; stroke-linejoin: miter"/>
   </g>
   <g id="patch_5">
    <path d="M 100.352214 243.274607 
L 411.207786 243.274607 
Q 412.872914 243.274607 412.872914 241.226127 
L 412.872914 188.902088 
Q 412.872914 186.853607 411.207786 186.853607 
L 100.352214 186.853607 
Q 98.687086 186.853607 98.687086 188.902088 
L 98.687086 241.226127 
Q 98.687086 243.274607 100.352214 243.274607 
z
" style="fill: #eaf4fa; stroke: #1b4f72; stroke-width: 1.55; stroke-linejoin: miter"/>
   </g>
   <g id="patch_6">
    <path d="M 119.382246 312.045017 
L 392.177754 312.045017 
Q 393.842882 312.045017 393.842882 309.996536 
L 393.842882 257.672497 
Q 393.842882 255.624017 392.177754 255.624017 
L 119.382246 255.624017 
Q 117.717118 255.624017 117.717118 257.672497 
L 117.717118 309.996536 
Q 117.717118 312.045017 119.382246 312.045017 
z
" style="fill: #eaf4fa; stroke: #1b4f72; stroke-width: 1.55; stroke-linejoin: miter"/>
   </g>
   <g id="patch_7">
    <path d="M 136.033524 380.815426 
L 375.526476 380.815426 
Q 377.191604 380.815426 377.191604 378.766946 
L 377.191604 326.442907 
Q 377.191604 324.394426 375.526476 324.394426 
L 136.033524 324.394426 
Q 134.368396 324.394426 134.368396 326.442907 
L 134.368396 378.766946 
Q 134.368396 380.815426 136.033524 380.815426 
z
" style="fill: #eaf4fa; stroke: #1b4f72; stroke-width: 1.55; stroke-linejoin: miter"/>
   </g>
   <g id="patch_8">
    <path d="M 147.927294 449.585835 
L 363.632706 449.585835 
Q 365.297834 449.585835 365.297834 447.537355 
L 365.297834 395.213316 
Q 365.297834 393.164836 363.632706 393.164836 
L 147.927294 393.164836 
Q 146.262166 393.164836 146.262166 395.213316 
L 146.262166 447.537355 
Q 146.262166 449.585835 147.927294 449.585835 
z
" style="fill: #fbf0dc; stroke: #1b4f72; stroke-width: 1.55; stroke-linejoin: miter"/>
   </g>
   <g id="patch_9">
    <path d="M 182.181351 534.744087 
L 329.378649 534.744087 
Q 331.043777 534.744087 331.043777 532.695607 
L 331.043777 463.983725 
Q 331.043777 461.935245 329.378649 461.935245 
L 182.181351 461.935245 
Q 180.516223 461.935245 180.516223 463.983725 
L 180.516223 532.695607 
Q 180.516223 534.744087 182.181351 534.744087 
z
" style="fill: #eaf4fa; stroke: #1b4f72; stroke-width: 1.7; stroke-linejoin: miter"/>
   </g>
   <g id="patch_10">
    <path d="M 352.500138 534.744087 
L 499.697435 534.744087 
Q 501.362563 534.744087 501.362563 532.695607 
L 501.362563 463.983725 
Q 501.362563 461.935245 499.697435 461.935245 
L 352.500138 461.935245 
Q 350.83501 461.935245 350.83501 463.983725 
L 350.83501 532.695607 
Q 350.83501 534.744087 352.500138 534.744087 
z
" style="fill: #e6f4ef; stroke: #009e73; stroke-width: 1.7; stroke-linejoin: miter"/>
   </g>
   <g id="patch_11">
    <path d="M 369.246566 105.616732 
Q 369.246566 111.908493 369.246566 116.467301 
" style="fill: none; stroke: #1b4f72; stroke-width: 1.55; stroke-linecap: round"/>
    <path d="M 371.446566 112.067301 
L 369.246566 116.467301 
L 367.046566 112.067301 
z
" style="fill: #1b4f72; stroke: #1b4f72; stroke-width: 1.55; stroke-linecap: round"/>
   </g>
   <g id="patch_12">
    <path d="M 255.78 174.387142 
Q 255.78 180.678903 255.78 185.237711 
" style="fill: none; stroke: #1b4f72; stroke-width: 1.55; stroke-linecap: round"/>
    <path d="M 257.98 180.837711 
L 255.78 185.237711 
L 253.58 180.837711 
z
" style="fill: #1b4f72; stroke: #1b4f72; stroke-width: 1.55; stroke-linecap: round"/>
   </g>
   <g id="patch_13">
    <path d="M 255.78 243.157551 
Q 255.78 249.449312 255.78 254.00812 
" style="fill: none; stroke: #1b4f72; stroke-width: 1.55; stroke-linecap: round"/>
    <path d="M 257.98 249.60812 
L 255.78 254.00812 
L 253.58 249.60812 
z
" style="fill: #1b4f72; stroke: #1b4f72; stroke-width: 1.55; stroke-linecap: round"/>
   </g>
   <g id="patch_14">
    <path d="M 255.78 311.927961 
Q 255.78 318.219721 255.78 322.77853 
" style="fill: none; stroke: #1b4f72; stroke-width: 1.55; stroke-linecap: round"/>
    <path d="M 257.98 318.37853 
L 255.78 322.77853 
L 253.58 318.37853 
z
" style="fill: #1b4f72; stroke: #1b4f72; stroke-width: 1.55; stroke-linecap: round"/>
   </g>
   <g id="patch_15">
    <path d="M 255.78 380.69837 
Q 255.78 386.990131 255.78 391.548939 
" style="fill: none; stroke: #1b4f72; stroke-width: 1.55; stroke-linecap: round"/>
    <path d="M 257.98 387.148939 
L 255.78 391.548939 
L 253.58 387.148939 
z
" style="fill: #1b4f72; stroke: #1b4f72; stroke-width: 1.55; stroke-linecap: round"/>
   </g>
   <g id="patch_16">
    <path d="M 255.78 449.468779 
Q 255.78 455.76054 255.78 460.319348 
" style="fill: none; stroke: #1b4f72; stroke-width: 1.55; stroke-linecap: round"/>
    <path d="M 257.98 455.919348 
L 255.78 460.319348 
L 253.58 455.919348 
z
" style="fill: #1b4f72; stroke: #1b4f72; stroke-width: 1.55; stroke-linecap: round"/>
   </g>
   <g id="patch_17">
    <path d="M 330.948626 498.339666 
Q 340.939393 498.339666 349.197207 498.339666 
" style="fill: none; stroke: #1b4f72; stroke-width: 1.55; stroke-linecap: round"/>
    <path d="M 344.797207 496.139666 
L 349.197207 498.339666 
L 344.797207 500.539666 
z
" style="fill: #1b4f72; stroke: #1b4f72; stroke-width: 1.55; stroke-linecap: round"/>
   </g>
   <g id="text_1">
    <!-- Healthy -->
    <g style="fill: #111111" transform="translate(114.972614 48.287803) scale(0.125 -0.125)">
     <defs>
      <path id="DejaVuSans-Bold-2b" d="M 588 4666 
L 1791 4666 
L 1791 2888 
L 3566 2888 
L 3566 4666 
L 4769 4666 
L 4769 0 
L 3566 0 
L 3566 1978 
L 1791 1978 
L 1791 0 
L 588 0 
L 588 4666 
z
" transform="scale(0.015625)"/>
      <path id="DejaVuSans-Bold-48" d="M 4031 1759 
L 4031 1441 
L 1416 1441 
Q 1456 1047 1700 850 
Q 1944 653 2381 653 
Q 2734 653 3104 758 
Q 3475 863 3866 1075 
L 3866 213 
Q 3469 63 3072 -14 
Q 2675 -91 2278 -91 
Q 1328 -91 801 392 
Q 275 875 275 1747 
Q 275 2603 792 3093 
Q 1309 3584 2216 3584 
Q 3041 3584 3536 3087 
Q 4031 2591 4031 1759 
z
M 2881 2131 
Q 2881 2450 2695 2645 
Q 2509 2841 2209 2841 
Q 1884 2841 1681 2658 
Q 1478 2475 1428 2131 
L 2881 2131 
z
" transform="scale(0.015625)"/>
      <path id="DejaVuSans-Bold-44" d="M 2106 1575 
Q 1756 1575 1579 1456 
Q 1403 1338 1403 1106 
Q 1403 894 1545 773 
Q 1688 653 1941 653 
Q 2256 653 2472 879 
Q 2688 1106 2688 1447 
L 2688 1575 
L 2106 1575 
z
M 3816 1997 
L 3816 0 
L 2688 0 
L 2688 519 
Q 2463 200 2181 54 
Q 1900 -91 1497 -91 
Q 953 -91 614 226 
Q 275 544 275 1050 
Q 275 1666 698 1953 
Q 1122 2241 2028 2241 
L 2688 2241 
L 2688 2328 
Q 2688 2594 2478 2717 
Q 2269 2841 1825 2841 
Q 1466 2841 1156 2769 
Q 847 2697 581 2553 
L 581 3406 
Q 941 3494 1303 3539 
Q 1666 3584 2028 3584 
Q 2975 3584 3395 3211 
Q 3816 2838 3816 1997 
z
" transform="scale(0.015625)"/>
      <path id="DejaVuSans-Bold-4f" d="M 538 4863 
L 1656 4863 
L 1656 0 
L 538 0 
L 538 4863 
z
" transform="scale(0.015625)"/>
      <path id="DejaVuSans-Bold-57" d="M 1759 4494 
L 1759 3500 
L 2913 3500 
L 2913 2700 
L 1759 2700 
L 1759 1216 
Q 1759 972 1856 886 
Q 1953 800 2241 800 
L 2816 800 
L 2816 0 
L 1856 0 
Q 1194 0 917 276 
Q 641 553 641 1216 
L 641 2700 
L 84 2700 
L 84 3500 
L 641 3500 
L 641 4494 
L 1759 4494 
z
" transform="scale(0.015625)"/>
      <path id="DejaVuSans-Bold-4b" d="M 4056 2131 
L 4056 0 
L 2931 0 
L 2931 347 
L 2931 1625 
Q 2931 2084 2911 2256 
Q 2891 2428 2841 2509 
Q 2775 2619 2662 2680 
Q 2550 2741 2406 2741 
Q 2056 2741 1856 2470 
Q 1656 2200 1656 1722 
L 1656 0 
L 538 0 
L 538 4863 
L 1656 4863 
L 1656 2988 
Q 1909 3294 2193 3439 
Q 2478 3584 2822 3584 
Q 3428 3584 3742 3212 
Q 4056 2841 4056 2131 
z
" transform="scale(0.015625)"/>
      <path id="DejaVuSans-Bold-5c" d="M 78 3500 
L 1197 3500 
L 2138 1125 
L 2938 3500 
L 4056 3500 
L 2584 -331 
Q 2363 -916 2067 -1148 
Q 1772 -1381 1288 -1381 
L 641 -1381 
L 641 -647 
L 991 -647 
Q 1275 -647 1404 -556 
Q 1534 -466 1606 -231 
L 1638 -134 
L 78 3500 
z
" transform="scale(0.015625)"/>
     </defs>
     <use xlink:href="#DejaVuSans-Bold-2b"/>
     <use xlink:href="#DejaVuSans-Bold-48" transform="translate(83.6875 0)"/>
     <use xlink:href="#DejaVuSans-Bold-44" transform="translate(151.515625 0)"/>
     <use xlink:href="#DejaVuSans-Bold-4f" transform="translate(219 0)"/>
     <use xlink:href="#DejaVuSans-Bold-57" transform="translate(253.28125 0)"/>
     <use xlink:href="#DejaVuSans-Bold-4b" transform="translate(301.078125 0)"/>
     <use xlink:href="#DejaVuSans-Bold-5c" transform="translate(372.265625 0)"/>
    </g>
   </g>
   <g id="text_2">
    <!-- 11.27 million -->
    <g style="fill: #0072b2" transform="translate(81.896364 73.908785) scale(0.165 -0.165)">
     <defs>
      <path id="DejaVuSans-Bold-14" d="M 750 831 
L 1813 831 
L 1813 3847 
L 722 3622 
L 722 4441 
L 1806 4666 
L 2950 4666 
L 2950 831 
L 4013 831 
L 4013 0 
L 750 0 
L 750 831 
z
" transform="scale(0.015625)"/>
      <path id="DejaVuSans-Bold-11" d="M 653 1209 
L 1778 1209 
L 1778 0 
L 653 0 
L 653 1209 
z
" transform="scale(0.015625)"/>
      <path id="DejaVuSans-Bold-15" d="M 1844 884 
L 3897 884 
L 3897 0 
L 506 0 
L 506 884 
L 2209 2388 
Q 2438 2594 2547 2791 
Q 2656 2988 2656 3200 
Q 2656 3528 2436 3728 
Q 2216 3928 1850 3928 
Q 1569 3928 1234 3808 
Q 900 3688 519 3450 
L 519 4475 
Q 925 4609 1322 4679 
Q 1719 4750 2100 4750 
Q 2938 4750 3402 4381 
Q 3866 4013 3866 3353 
Q 3866 2972 3669 2642 
Q 3472 2313 2841 1759 
L 1844 884 
z
" transform="scale(0.015625)"/>
      <path id="DejaVuSans-Bold-1a" d="M 428 4666 
L 3944 4666 
L 3944 3988 
L 2125 0 
L 953 0 
L 2675 3781 
L 428 3781 
L 428 4666 
z
" transform="scale(0.015625)"/>
      <path id="DejaVuSans-Bold-3" transform="scale(0.015625)"/>
      <path id="DejaVuSans-Bold-50" d="M 3781 2919 
Q 3994 3244 4286 3414 
Q 4578 3584 4928 3584 
Q 5531 3584 5847 3212 
Q 6163 2841 6163 2131 
L 6163 0 
L 5038 0 
L 5038 1825 
Q 5041 1866 5042 1909 
Q 5044 1953 5044 2034 
Q 5044 2406 4934 2573 
Q 4825 2741 4581 2741 
Q 4263 2741 4089 2478 
Q 3916 2216 3909 1719 
L 3909 0 
L 2784 0 
L 2784 1825 
Q 2784 2406 2684 2573 
Q 2584 2741 2328 2741 
Q 2006 2741 1831 2477 
Q 1656 2213 1656 1722 
L 1656 0 
L 531 0 
L 531 3500 
L 1656 3500 
L 1656 2988 
Q 1863 3284 2130 3434 
Q 2397 3584 2719 3584 
Q 3081 3584 3359 3409 
Q 3638 3234 3781 2919 
z
" transform="scale(0.015625)"/>
      <path id="DejaVuSans-Bold-4c" d="M 538 3500 
L 1656 3500 
L 1656 0 
L 538 0 
L 538 3500 
z
M 538 4863 
L 1656 4863 
L 1656 3950 
L 538 3950 
L 538 4863 
z
" transform="scale(0.015625)"/>
      <path id="DejaVuSans-Bold-52" d="M 2203 2784 
Q 1831 2784 1636 2517 
Q 1441 2250 1441 1747 
Q 1441 1244 1636 976 
Q 1831 709 2203 709 
Q 2569 709 2762 976 
Q 2956 1244 2956 1747 
Q 2956 2250 2762 2517 
Q 2569 2784 2203 2784 
z
M 2203 3584 
Q 3106 3584 3614 3096 
Q 4122 2609 4122 1747 
Q 4122 884 3614 396 
Q 3106 -91 2203 -91 
Q 1297 -91 786 396 
Q 275 884 275 1747 
Q 275 2609 786 3096 
Q 1297 3584 2203 3584 
z
" transform="scale(0.015625)"/>
      <path id="DejaVuSans-Bold-51" d="M 4056 2131 
L 4056 0 
L 2931 0 
L 2931 347 
L 2931 1631 
Q 2931 2084 2911 2256 
Q 2891 2428 2841 2509 
Q 2775 2619 2662 2680 
Q 2550 2741 2406 2741 
Q 2056 2741 1856 2470 
Q 1656 2200 1656 1722 
L 1656 0 
L 538 0 
L 538 3500 
L 1656 3500 
L 1656 2988 
Q 1909 3294 2193 3439 
Q 2478 3584 2822 3584 
Q 3428 3584 3742 3212 
Q 4056 2841 4056 2131 
z
" transform="scale(0.015625)"/>
     </defs>
     <use xlink:href="#DejaVuSans-Bold-14"/>
     <use xlink:href="#DejaVuSans-Bold-14" transform="translate(69.578125 0)"/>
     <use xlink:href="#DejaVuSans-Bold-11" transform="translate(139.15625 0)"/>
     <use xlink:href="#DejaVuSans-Bold-15" transform="translate(177.140625 0)"/>
     <use xlink:href="#DejaVuSans-Bold-1a" transform="translate(246.71875 0)"/>
     <use xlink:href="#DejaVuSans-Bold-3" transform="translate(316.296875 0)"/>
     <use xlink:href="#DejaVuSans-Bold-50" transform="translate(351.109375 0)"/>
     <use xlink:href="#DejaVuSans-Bold-4c" transform="translate(455.3125 0)"/>
     <use xlink:href="#DejaVuSans-Bold-4f" transform="translate(489.59375 0)"/>
     <use xlink:href="#DejaVuSans-Bold-4f" transform="translate(523.875 0)"/>
     <use xlink:href="#DejaVuSans-Bold-4c" transform="translate(558.15625 0)"/>
     <use xlink:href="#DejaVuSans-Bold-52" transform="translate(592.4375 0)"/>
     <use xlink:href="#DejaVuSans-Bold-51" transform="translate(661.140625 0)"/>
    </g>
   </g>
   <g id="text_3">
    <!-- 22 Models Only -->
    <g style="fill: #333333" transform="translate(106.790653 94.252854) scale(0.092 -0.092)">
     <defs>
      <path id="DejaVuSans-15" d="M 1228 531 
L 3431 531 
L 3431 0 
L 469 0 
L 469 531 
Q 828 903 1448 1529 
Q 2069 2156 2228 2338 
Q 2531 2678 2651 2914 
Q 2772 3150 2772 3378 
Q 2772 3750 2511 3984 
Q 2250 4219 1831 4219 
Q 1534 4219 1204 4116 
Q 875 4013 500 3803 
L 500 4441 
Q 881 4594 1212 4672 
Q 1544 4750 1819 4750 
Q 2544 4750 2975 4387 
Q 3406 4025 3406 3419 
Q 3406 3131 3298 2873 
Q 3191 2616 2906 2266 
Q 2828 2175 2409 1742 
Q 1991 1309 1228 531 
z
" transform="scale(0.015625)"/>
      <path id="DejaVuSans-3" transform="scale(0.015625)"/>
      <path id="DejaVuSans-30" d="M 628 4666 
L 1569 4666 
L 2759 1491 
L 3956 4666 
L 4897 4666 
L 4897 0 
L 4281 0 
L 4281 4097 
L 3078 897 
L 2444 897 
L 1241 4097 
L 1241 0 
L 628 0 
L 628 4666 
z
" transform="scale(0.015625)"/>
      <path id="DejaVuSans-52" d="M 1959 3097 
Q 1497 3097 1228 2736 
Q 959 2375 959 1747 
Q 959 1119 1226 758 
Q 1494 397 1959 397 
Q 2419 397 2687 759 
Q 2956 1122 2956 1747 
Q 2956 2369 2687 2733 
Q 2419 3097 1959 3097 
z
M 1959 3584 
Q 2709 3584 3137 3096 
Q 3566 2609 3566 1747 
Q 3566 888 3137 398 
Q 2709 -91 1959 -91 
Q 1206 -91 779 398 
Q 353 888 353 1747 
Q 353 2609 779 3096 
Q 1206 3584 1959 3584 
z
" transform="scale(0.015625)"/>
      <path id="DejaVuSans-47" d="M 2906 2969 
L 2906 4863 
L 3481 4863 
L 3481 0 
L 2906 0 
L 2906 525 
Q 2725 213 2448 61 
Q 2172 -91 1784 -91 
Q 1150 -91 751 415 
Q 353 922 353 1747 
Q 353 2572 751 3078 
Q 1150 3584 1784 3584 
Q 2172 3584 2448 3432 
Q 2725 3281 2906 2969 
z
M 947 1747 
Q 947 1113 1208 752 
Q 1469 391 1925 391 
Q 2381 391 2643 752 
Q 2906 1113 2906 1747 
Q 2906 2381 2643 2742 
Q 2381 3103 1925 3103 
Q 1469 3103 1208 2742 
Q 947 2381 947 1747 
z
" transform="scale(0.015625)"/>
      <path id="DejaVuSans-48" d="M 3597 1894 
L 3597 1613 
L 953 1613 
Q 991 1019 1311 708 
Q 1631 397 2203 397 
Q 2534 397 2845 478 
Q 3156 559 3463 722 
L 3463 178 
Q 3153 47 2828 -22 
Q 2503 -91 2169 -91 
Q 1331 -91 842 396 
Q 353 884 353 1716 
Q 353 2575 817 3079 
Q 1281 3584 2069 3584 
Q 2775 3584 3186 3129 
Q 3597 2675 3597 1894 
z
M 3022 2063 
Q 3016 2534 2758 2815 
Q 2500 3097 2075 3097 
Q 1594 3097 1305 2825 
Q 1016 2553 972 2059 
L 3022 2063 
z
" transform="scale(0.015625)"/>
      <path id="DejaVuSans-4f" d="M 603 4863 
L 1178 4863 
L 1178 0 
L 603 0 
L 603 4863 
z
" transform="scale(0.015625)"/>
      <path id="DejaVuSans-56" d="M 2834 3397 
L 2834 2853 
Q 2591 2978 2328 3040 
Q 2066 3103 1784 3103 
Q 1356 3103 1142 2972 
Q 928 2841 928 2578 
Q 928 2378 1081 2264 
Q 1234 2150 1697 2047 
L 1894 2003 
Q 2506 1872 2764 1633 
Q 3022 1394 3022 966 
Q 3022 478 2636 193 
Q 2250 -91 1575 -91 
Q 1294 -91 989 -36 
Q 684 19 347 128 
L 347 722 
Q 666 556 975 473 
Q 1284 391 1588 391 
Q 1994 391 2212 530 
Q 2431 669 2431 922 
Q 2431 1156 2273 1281 
Q 2116 1406 1581 1522 
L 1381 1569 
Q 847 1681 609 1914 
Q 372 2147 372 2553 
Q 372 3047 722 3315 
Q 1072 3584 1716 3584 
Q 2034 3584 2315 3537 
Q 2597 3491 2834 3397 
z
" transform="scale(0.015625)"/>
      <path id="DejaVuSans-32" d="M 2522 4238 
Q 1834 4238 1429 3725 
Q 1025 3213 1025 2328 
Q 1025 1447 1429 934 
Q 1834 422 2522 422 
Q 3209 422 3611 934 
Q 4013 1447 4013 2328 
Q 4013 3213 3611 3725 
Q 3209 4238 2522 4238 
z
M 2522 4750 
Q 3503 4750 4090 4092 
Q 4678 3434 4678 2328 
Q 4678 1225 4090 567 
Q 3503 -91 2522 -91 
Q 1538 -91 948 565 
Q 359 1222 359 2328 
Q 359 3434 948 4092 
Q 1538 4750 2522 4750 
z
" transform="scale(0.015625)"/>
      <path id="DejaVuSans-51" d="M 3513 2113 
L 3513 0 
L 2938 0 
L 2938 2094 
Q 2938 2591 2744 2837 
Q 2550 3084 2163 3084 
Q 1697 3084 1428 2787 
Q 1159 2491 1159 1978 
L 1159 0 
L 581 0 
L 581 3500 
L 1159 3500 
L 1159 2956 
Q 1366 3272 1645 3428 
Q 1925 3584 2291 3584 
Q 2894 3584 3203 3211 
Q 3513 2838 3513 2113 
z
" transform="scale(0.015625)"/>
      <path id="DejaVuSans-5c" d="M 2059 -325 
Q 1816 -950 1584 -1140 
Q 1353 -1331 966 -1331 
L 506 -1331 
L 506 -850 
L 844 -850 
Q 1081 -850 1212 -737 
Q 1344 -625 1503 -206 
L 1606 56 
L 191 3500 
L 800 3500 
L 1894 763 
L 2988 3500 
L 3597 3500 
L 2059 -325 
z
" transform="scale(0.015625)"/>
     </defs>
     <use xlink:href="#DejaVuSans-15"/>
     <use xlink:href="#DejaVuSans-15" transform="translate(63.625 0)"/>
     <use xlink:href="#DejaVuSans-3" transform="translate(127.25 0)"/>
     <use xlink:href="#DejaVuSans-30" transform="translate(159.03125 0)"/>
     <use xlink:href="#DejaVuSans-52" transform="translate(245.3125 0)"/>
     <use xlink:href="#DejaVuSans-47" transform="translate(306.5 0)"/>
     <use xlink:href="#DejaVuSans-48" transform="translate(369.984375 0)"/>
     <use xlink:href="#DejaVuSans-4f" transform="translate(431.515625 0)"/>
     <use xlink:href="#DejaVuSans-56" transform="translate(459.296875 0)"/>
     <use xlink:href="#DejaVuSans-3" transform="translate(511.390625 0)"/>
     <use xlink:href="#DejaVuSans-32" transform="translate(543.171875 0)"/>
     <use xlink:href="#DejaVuSans-51" transform="translate(621.890625 0)"/>
     <use xlink:href="#DejaVuSans-4f" transform="translate(685.265625 0)"/>
     <use xlink:href="#DejaVuSans-5c" transform="translate(713.046875 0)"/>
    </g>
   </g>
   <g id="text_4">
    <!-- Periodontitis -->
    <g style="fill: #111111" transform="translate(323.71141 48.287803) scale(0.125 -0.125)">
     <defs>
      <path id="DejaVuSans-Bold-33" d="M 588 4666 
L 2584 4666 
Q 3475 4666 3951 4270 
Q 4428 3875 4428 3144 
Q 4428 2409 3951 2014 
Q 3475 1619 2584 1619 
L 1791 1619 
L 1791 0 
L 588 0 
L 588 4666 
z
M 1791 3794 
L 1791 2491 
L 2456 2491 
Q 2806 2491 2997 2661 
Q 3188 2831 3188 3144 
Q 3188 3456 2997 3625 
Q 2806 3794 2456 3794 
L 1791 3794 
z
" transform="scale(0.015625)"/>
      <path id="DejaVuSans-Bold-55" d="M 3138 2547 
Q 2991 2616 2845 2648 
Q 2700 2681 2553 2681 
Q 2122 2681 1889 2404 
Q 1656 2128 1656 1613 
L 1656 0 
L 538 0 
L 538 3500 
L 1656 3500 
L 1656 2925 
Q 1872 3269 2151 3426 
Q 2431 3584 2822 3584 
Q 2878 3584 2943 3579 
Q 3009 3575 3134 3559 
L 3138 2547 
z
" transform="scale(0.015625)"/>
      <path id="DejaVuSans-Bold-47" d="M 2919 2988 
L 2919 4863 
L 4044 4863 
L 4044 0 
L 2919 0 
L 2919 506 
Q 2688 197 2409 53 
Q 2131 -91 1766 -91 
Q 1119 -91 703 423 
Q 288 938 288 1747 
Q 288 2556 703 3070 
Q 1119 3584 1766 3584 
Q 2128 3584 2408 3439 
Q 2688 3294 2919 2988 
z
M 2181 722 
Q 2541 722 2730 984 
Q 2919 1247 2919 1747 
Q 2919 2247 2730 2509 
Q 2541 2772 2181 2772 
Q 1825 2772 1636 2509 
Q 1447 2247 1447 1747 
Q 1447 1247 1636 984 
Q 1825 722 2181 722 
z
" transform="scale(0.015625)"/>
      <path id="DejaVuSans-Bold-56" d="M 3272 3391 
L 3272 2541 
Q 2913 2691 2578 2766 
Q 2244 2841 1947 2841 
Q 1628 2841 1473 2761 
Q 1319 2681 1319 2516 
Q 1319 2381 1436 2309 
Q 1553 2238 1856 2203 
L 2053 2175 
Q 2913 2066 3209 1816 
Q 3506 1566 3506 1031 
Q 3506 472 3093 190 
Q 2681 -91 1863 -91 
Q 1516 -91 1145 -36 
Q 775 19 384 128 
L 384 978 
Q 719 816 1070 734 
Q 1422 653 1784 653 
Q 2113 653 2278 743 
Q 2444 834 2444 1013 
Q 2444 1163 2330 1236 
Q 2216 1309 1875 1350 
L 1678 1375 
Q 931 1469 631 1722 
Q 331 1975 331 2491 
Q 331 3047 712 3315 
Q 1094 3584 1881 3584 
Q 2191 3584 2531 3537 
Q 2872 3491 3272 3391 
z
" transform="scale(0.015625)"/>
     </defs>
     <use xlink:href="#DejaVuSans-Bold-33"/>
     <use xlink:href="#DejaVuSans-Bold-48" transform="translate(73.296875 0)"/>
     <use xlink:href="#DejaVuSans-Bold-55" transform="translate(141.125 0)"/>
     <use xlink:href="#DejaVuSans-Bold-4c" transform="translate(190.4375 0)"/>
     <use xlink:href="#DejaVuSans-Bold-52" transform="translate(224.71875 0)"/>
     <use xlink:href="#DejaVuSans-Bold-47" transform="translate(293.421875 0)"/>
     <use xlink:href="#DejaVuSans-Bold-52" transform="translate(365 0)"/>
     <use xlink:href="#DejaVuSans-Bold-51" transform="translate(433.703125 0)"/>
     <use xlink:href="#DejaVuSans-Bold-57" transform="translate(504.890625 0)"/>
     <use xlink:href="#DejaVuSans-Bold-4c" transform="translate(552.6875 0)"/>
     <use xlink:href="#DejaVuSans-Bold-57" transform="translate(586.96875 0)"/>
     <use xlink:href="#DejaVuSans-Bold-4c" transform="translate(634.765625 0)"/>
     <use xlink:href="#DejaVuSans-Bold-56" transform="translate(669.046875 0)"/>
    </g>
   </g>
   <g id="text_5">
    <!-- 11.72 million -->
    <g style="fill: #0072b2" transform="translate(308.829495 73.908785) scale(0.165 -0.165)">
     <use xlink:href="#DejaVuSans-Bold-14"/>
     <use xlink:href="#DejaVuSans-Bold-14" transform="translate(69.578125 0)"/>
     <use xlink:href="#DejaVuSans-Bold-11" transform="translate(139.15625 0)"/>
     <use xlink:href="#DejaVuSans-Bold-1a" transform="translate(177.140625 0)"/>
     <use xlink:href="#DejaVuSans-Bold-15" transform="translate(246.71875 0)"/>
     <use xlink:href="#DejaVuSans-Bold-3" transform="translate(316.296875 0)"/>
     <use xlink:href="#DejaVuSans-Bold-50" transform="translate(351.109375 0)"/>
     <use xlink:href="#DejaVuSans-Bold-4c" transform="translate(455.3125 0)"/>
     <use xlink:href="#DejaVuSans-Bold-4f" transform="translate(489.59375 0)"/>
     <use xlink:href="#DejaVuSans-Bold-4f" transform="translate(523.875 0)"/>
     <use xlink:href="#DejaVuSans-Bold-4c" transform="translate(558.15625 0)"/>
     <use xlink:href="#DejaVuSans-Bold-52" transform="translate(592.4375 0)"/>
     <use xlink:href="#DejaVuSans-Bold-51" transform="translate(661.140625 0)"/>
    </g>
   </g>
   <g id="text_6">
    <!-- 22 Models, Then Matched -->
    <g style="fill: #333333" transform="translate(310.079785 94.252854) scale(0.092 -0.092)">
     <defs>
      <path id="DejaVuSans-f" d="M 750 794 
L 1409 794 
L 1409 256 
L 897 -744 
L 494 -744 
L 750 256 
L 750 794 
z
" transform="scale(0.015625)"/>
      <path id="DejaVuSans-37" d="M -19 4666 
L 3928 4666 
L 3928 4134 
L 2272 4134 
L 2272 0 
L 1638 0 
L 1638 4134 
L -19 4134 
L -19 4666 
z
" transform="scale(0.015625)"/>
      <path id="DejaVuSans-4b" d="M 3513 2113 
L 3513 0 
L 2938 0 
L 2938 2094 
Q 2938 2591 2744 2837 
Q 2550 3084 2163 3084 
Q 1697 3084 1428 2787 
Q 1159 2491 1159 1978 
L 1159 0 
L 581 0 
L 581 4863 
L 1159 4863 
L 1159 2956 
Q 1366 3272 1645 3428 
Q 1925 3584 2291 3584 
Q 2894 3584 3203 3211 
Q 3513 2838 3513 2113 
z
" transform="scale(0.015625)"/>
      <path id="DejaVuSans-44" d="M 2194 1759 
Q 1497 1759 1228 1600 
Q 959 1441 959 1056 
Q 959 750 1161 570 
Q 1363 391 1709 391 
Q 2188 391 2477 730 
Q 2766 1069 2766 1631 
L 2766 1759 
L 2194 1759 
z
M 3341 1997 
L 3341 0 
L 2766 0 
L 2766 531 
Q 2569 213 2275 61 
Q 1981 -91 1556 -91 
Q 1019 -91 701 211 
Q 384 513 384 1019 
Q 384 1609 779 1909 
Q 1175 2209 1959 2209 
L 2766 2209 
L 2766 2266 
Q 2766 2663 2505 2880 
Q 2244 3097 1772 3097 
Q 1472 3097 1187 3025 
Q 903 2953 641 2809 
L 641 3341 
Q 956 3463 1253 3523 
Q 1550 3584 1831 3584 
Q 2591 3584 2966 3190 
Q 3341 2797 3341 1997 
z
" transform="scale(0.015625)"/>
      <path id="DejaVuSans-57" d="M 1172 4494 
L 1172 3500 
L 2356 3500 
L 2356 3053 
L 1172 3053 
L 1172 1153 
Q 1172 725 1289 603 
Q 1406 481 1766 481 
L 2356 481 
L 2356 0 
L 1766 0 
Q 1100 0 847 248 
Q 594 497 594 1153 
L 594 3053 
L 172 3053 
L 172 3500 
L 594 3500 
L 594 4494 
L 1172 4494 
z
" transform="scale(0.015625)"/>
      <path id="DejaVuSans-46" d="M 3122 3366 
L 3122 2828 
Q 2878 2963 2633 3030 
Q 2388 3097 2138 3097 
Q 1578 3097 1268 2742 
Q 959 2388 959 1747 
Q 959 1106 1268 751 
Q 1578 397 2138 397 
Q 2388 397 2633 464 
Q 2878 531 3122 666 
L 3122 134 
Q 2881 22 2623 -34 
Q 2366 -91 2075 -91 
Q 1284 -91 818 406 
Q 353 903 353 1747 
Q 353 2603 823 3093 
Q 1294 3584 2113 3584 
Q 2378 3584 2631 3529 
Q 2884 3475 3122 3366 
z
" transform="scale(0.015625)"/>
     </defs>
     <use xlink:href="#DejaVuSans-15"/>
     <use xlink:href="#DejaVuSans-15" transform="translate(63.625 0)"/>
     <use xlink:href="#DejaVuSans-3" transform="translate(127.25 0)"/>
     <use xlink:href="#DejaVuSans-30" transform="translate(159.03125 0)"/>
     <use xlink:href="#DejaVuSans-52" transform="translate(245.3125 0)"/>
     <use xlink:href="#DejaVuSans-47" transform="translate(306.5 0)"/>
     <use xlink:href="#DejaVuSans-48" transform="translate(369.984375 0)"/>
     <use xlink:href="#DejaVuSans-4f" transform="translate(431.515625 0)"/>
     <use xlink:href="#DejaVuSans-56" transform="translate(459.296875 0)"/>
     <use xlink:href="#DejaVuSans-f" transform="translate(511.390625 0)"/>
     <use xlink:href="#DejaVuSans-3" transform="translate(543.171875 0)"/>
     <use xlink:href="#DejaVuSans-37" transform="translate(574.953125 0)"/>
     <use xlink:href="#DejaVuSans-4b" transform="translate(636.03125 0)"/>
     <use xlink:href="#DejaVuSans-48" transform="translate(699.40625 0)"/>
     <use xlink:href="#DejaVuSans-51" transform="translate(760.9375 0)"/>
     <use xlink:href="#DejaVuSans-3" transform="translate(824.3125 0)"/>
     <use xlink:href="#DejaVuSans-30" transform="translate(856.09375 0)"/>
     <use xlink:href="#DejaVuSans-44" transform="translate(942.375 0)"/>
     <use xlink:href="#DejaVuSans-57" transform="translate(1003.65625 0)"/>
     <use xlink:href="#DejaVuSans-46" transform="translate(1042.859375 0)"/>
     <use xlink:href="#DejaVuSans-4b" transform="translate(1097.84375 0)"/>
     <use xlink:href="#DejaVuSans-48" transform="translate(1161.21875 0)"/>
     <use xlink:href="#DejaVuSans-47" transform="translate(1222.75 0)"/>
    </g>
   </g>
   <g id="text_7">
    <!-- BBB ≥ 0.80 -->
    <g style="fill: #333333" transform="translate(228.715344 136.737253) scale(0.094 -0.094)">
     <defs>
      <path id="DejaVuSans-25" d="M 1259 2228 
L 1259 519 
L 2272 519 
Q 2781 519 3026 730 
Q 3272 941 3272 1375 
Q 3272 1813 3026 2020 
Q 2781 2228 2272 2228 
L 1259 2228 
z
M 1259 4147 
L 1259 2741 
L 2194 2741 
Q 2656 2741 2882 2914 
Q 3109 3088 3109 3444 
Q 3109 3797 2882 3972 
Q 2656 4147 2194 4147 
L 1259 4147 
z
M 628 4666 
L 2241 4666 
Q 2963 4666 3353 4366 
Q 3744 4066 3744 3513 
Q 3744 3084 3544 2831 
Q 3344 2578 2956 2516 
Q 3422 2416 3680 2098 
Q 3938 1781 3938 1306 
Q 3938 681 3513 340 
Q 3088 0 2303 0 
L 628 0 
L 628 4666 
z
" transform="scale(0.015625)"/>
      <path id="DejaVuSans-cef" d="M 678 3175 
L 678 3725 
L 4684 2578 
L 4684 2047 
L 678 897 
L 678 1453 
L 3681 2309 
L 678 3175 
z
M 4684 531 
L 4684 0 
L 678 0 
L 678 531 
L 4684 531 
z
" transform="scale(0.015625)"/>
      <path id="DejaVuSans-13" d="M 2034 4250 
Q 1547 4250 1301 3770 
Q 1056 3291 1056 2328 
Q 1056 1369 1301 889 
Q 1547 409 2034 409 
Q 2525 409 2770 889 
Q 3016 1369 3016 2328 
Q 3016 3291 2770 3770 
Q 2525 4250 2034 4250 
z
M 2034 4750 
Q 2819 4750 3233 4129 
Q 3647 3509 3647 2328 
Q 3647 1150 3233 529 
Q 2819 -91 2034 -91 
Q 1250 -91 836 529 
Q 422 1150 422 2328 
Q 422 3509 836 4129 
Q 1250 4750 2034 4750 
z
" transform="scale(0.015625)"/>
      <path id="DejaVuSans-11" d="M 684 794 
L 1344 794 
L 1344 0 
L 684 0 
L 684 794 
z
" transform="scale(0.015625)"/>
      <path id="DejaVuSans-1b" d="M 2034 2216 
Q 1584 2216 1326 1975 
Q 1069 1734 1069 1313 
Q 1069 891 1326 650 
Q 1584 409 2034 409 
Q 2484 409 2743 651 
Q 3003 894 3003 1313 
Q 3003 1734 2745 1975 
Q 2488 2216 2034 2216 
z
M 1403 2484 
Q 997 2584 770 2862 
Q 544 3141 544 3541 
Q 544 4100 942 4425 
Q 1341 4750 2034 4750 
Q 2731 4750 3128 4425 
Q 3525 4100 3525 3541 
Q 3525 3141 3298 2862 
Q 3072 2584 2669 2484 
Q 3125 2378 3379 2068 
Q 3634 1759 3634 1313 
Q 3634 634 3220 271 
Q 2806 -91 2034 -91 
Q 1263 -91 848 271 
Q 434 634 434 1313 
Q 434 1759 690 2068 
Q 947 2378 1403 2484 
z
M 1172 3481 
Q 1172 3119 1398 2916 
Q 1625 2713 2034 2713 
Q 2441 2713 2670 2916 
Q 2900 3119 2900 3481 
Q 2900 3844 2670 4047 
Q 2441 4250 2034 4250 
Q 1625 4250 1398 4047 
Q 1172 3844 1172 3481 
z
" transform="scale(0.015625)"/>
     </defs>
     <use xlink:href="#DejaVuSans-25"/>
     <use xlink:href="#DejaVuSans-25" transform="translate(68.609375 0)"/>
     <use xlink:href="#DejaVuSans-25" transform="translate(137.21875 0)"/>
     <use xlink:href="#DejaVuSans-3" transform="translate(205.828125 0)"/>
     <use xlink:href="#DejaVuSans-cef" transform="translate(237.609375 0)"/>
     <use xlink:href="#DejaVuSans-3" transform="translate(321.40625 0)"/>
     <use xlink:href="#DejaVuSans-13" transform="translate(353.1875 0)"/>
     <use xlink:href="#DejaVuSans-11" transform="translate(416.8125 0)"/>
     <use xlink:href="#DejaVuSans-1b" transform="translate(448.59375 0)"/>
     <use xlink:href="#DejaVuSans-13" transform="translate(512.21875 0)"/>
    </g>
   </g>
   <g id="text_8">
    <!-- 1.13 million -->
    <g style="fill: #0072b2" transform="translate(201.103125 161.993437) scale(0.165 -0.165)">
     <defs>
      <path id="DejaVuSans-Bold-16" d="M 2981 2516 
Q 3453 2394 3698 2092 
Q 3944 1791 3944 1325 
Q 3944 631 3412 270 
Q 2881 -91 1863 -91 
Q 1503 -91 1142 -33 
Q 781 25 428 141 
L 428 1069 
Q 766 900 1098 814 
Q 1431 728 1753 728 
Q 2231 728 2486 893 
Q 2741 1059 2741 1369 
Q 2741 1688 2480 1852 
Q 2219 2016 1709 2016 
L 1228 2016 
L 1228 2791 
L 1734 2791 
Q 2188 2791 2409 2933 
Q 2631 3075 2631 3366 
Q 2631 3634 2415 3781 
Q 2200 3928 1806 3928 
Q 1516 3928 1219 3862 
Q 922 3797 628 3669 
L 628 4550 
Q 984 4650 1334 4700 
Q 1684 4750 2022 4750 
Q 2931 4750 3382 4451 
Q 3834 4153 3834 3553 
Q 3834 3144 3618 2883 
Q 3403 2622 2981 2516 
z
" transform="scale(0.015625)"/>
     </defs>
     <use xlink:href="#DejaVuSans-Bold-14"/>
     <use xlink:href="#DejaVuSans-Bold-11" transform="translate(69.578125 0)"/>
     <use xlink:href="#DejaVuSans-Bold-14" transform="translate(107.5625 0)"/>
     <use xlink:href="#DejaVuSans-Bold-16" transform="translate(177.140625 0)"/>
     <use xlink:href="#DejaVuSans-Bold-3" transform="translate(246.71875 0)"/>
     <use xlink:href="#DejaVuSans-Bold-50" transform="translate(281.53125 0)"/>
     <use xlink:href="#DejaVuSans-Bold-4c" transform="translate(385.734375 0)"/>
     <use xlink:href="#DejaVuSans-Bold-4f" transform="translate(420.015625 0)"/>
     <use xlink:href="#DejaVuSans-Bold-4f" transform="translate(454.296875 0)"/>
     <use xlink:href="#DejaVuSans-Bold-4c" transform="translate(488.578125 0)"/>
     <use xlink:href="#DejaVuSans-Bold-52" transform="translate(522.859375 0)"/>
     <use xlink:href="#DejaVuSans-Bold-51" transform="translate(591.5625 0)"/>
    </g>
   </g>
   <g id="text_9">
    <!-- Metaproteome Unique -->
    <g style="fill: #333333" transform="translate(203.26925 205.50803) scale(0.094 -0.094)">
     <defs>
      <path id="DejaVuSans-53" d="M 1159 525 
L 1159 -1331 
L 581 -1331 
L 581 3500 
L 1159 3500 
L 1159 2969 
Q 1341 3281 1617 3432 
Q 1894 3584 2278 3584 
Q 2916 3584 3314 3078 
Q 3713 2572 3713 1747 
Q 3713 922 3314 415 
Q 2916 -91 2278 -91 
Q 1894 -91 1617 61 
Q 1341 213 1159 525 
z
M 3116 1747 
Q 3116 2381 2855 2742 
Q 2594 3103 2138 3103 
Q 1681 3103 1420 2742 
Q 1159 2381 1159 1747 
Q 1159 1113 1420 752 
Q 1681 391 2138 391 
Q 2594 391 2855 752 
Q 3116 1113 3116 1747 
z
" transform="scale(0.015625)"/>
      <path id="DejaVuSans-55" d="M 2631 2963 
Q 2534 3019 2420 3045 
Q 2306 3072 2169 3072 
Q 1681 3072 1420 2755 
Q 1159 2438 1159 1844 
L 1159 0 
L 581 0 
L 581 3500 
L 1159 3500 
L 1159 2956 
Q 1341 3275 1631 3429 
Q 1922 3584 2338 3584 
Q 2397 3584 2469 3576 
Q 2541 3569 2628 3553 
L 2631 2963 
z
" transform="scale(0.015625)"/>
      <path id="DejaVuSans-50" d="M 3328 2828 
Q 3544 3216 3844 3400 
Q 4144 3584 4550 3584 
Q 5097 3584 5394 3201 
Q 5691 2819 5691 2113 
L 5691 0 
L 5113 0 
L 5113 2094 
Q 5113 2597 4934 2840 
Q 4756 3084 4391 3084 
Q 3944 3084 3684 2787 
Q 3425 2491 3425 1978 
L 3425 0 
L 2847 0 
L 2847 2094 
Q 2847 2600 2669 2842 
Q 2491 3084 2119 3084 
Q 1678 3084 1418 2786 
Q 1159 2488 1159 1978 
L 1159 0 
L 581 0 
L 581 3500 
L 1159 3500 
L 1159 2956 
Q 1356 3278 1631 3431 
Q 1906 3584 2284 3584 
Q 2666 3584 2933 3390 
Q 3200 3197 3328 2828 
z
" transform="scale(0.015625)"/>
      <path id="DejaVuSans-38" d="M 556 4666 
L 1191 4666 
L 1191 1831 
Q 1191 1081 1462 751 
Q 1734 422 2344 422 
Q 2950 422 3222 751 
Q 3494 1081 3494 1831 
L 3494 4666 
L 4128 4666 
L 4128 1753 
Q 4128 841 3676 375 
Q 3225 -91 2344 -91 
Q 1459 -91 1007 375 
Q 556 841 556 1753 
L 556 4666 
z
" transform="scale(0.015625)"/>
      <path id="DejaVuSans-4c" d="M 603 3500 
L 1178 3500 
L 1178 0 
L 603 0 
L 603 3500 
z
M 603 4863 
L 1178 4863 
L 1178 4134 
L 603 4134 
L 603 4863 
z
" transform="scale(0.015625)"/>
      <path id="DejaVuSans-54" d="M 947 1747 
Q 947 1113 1208 752 
Q 1469 391 1925 391 
Q 2381 391 2643 752 
Q 2906 1113 2906 1747 
Q 2906 2381 2643 2742 
Q 2381 3103 1925 3103 
Q 1469 3103 1208 2742 
Q 947 2381 947 1747 
z
M 2906 525 
Q 2725 213 2448 61 
Q 2172 -91 1784 -91 
Q 1150 -91 751 415 
Q 353 922 353 1747 
Q 353 2572 751 3078 
Q 1150 3584 1784 3584 
Q 2172 3584 2448 3432 
Q 2725 3281 2906 2969 
L 2906 3500 
L 3481 3500 
L 3481 -1331 
L 2906 -1331 
L 2906 525 
z
" transform="scale(0.015625)"/>
      <path id="DejaVuSans-58" d="M 544 1381 
L 544 3500 
L 1119 3500 
L 1119 1403 
Q 1119 906 1312 657 
Q 1506 409 1894 409 
Q 2359 409 2629 706 
Q 2900 1003 2900 1516 
L 2900 3500 
L 3475 3500 
L 3475 0 
L 2900 0 
L 2900 538 
Q 2691 219 2414 64 
Q 2138 -91 1772 -91 
Q 1169 -91 856 284 
Q 544 659 544 1381 
z
M 1991 3584 
L 1991 3584 
z
" transform="scale(0.015625)"/>
     </defs>
     <use xlink:href="#DejaVuSans-30"/>
     <use xlink:href="#DejaVuSans-48" transform="translate(86.28125 0)"/>
     <use xlink:href="#DejaVuSans-57" transform="translate(147.8125 0)"/>
     <use xlink:href="#DejaVuSans-44" transform="translate(187.015625 0)"/>
     <use xlink:href="#DejaVuSans-53" transform="translate(248.296875 0)"/>
     <use xlink:href="#DejaVuSans-55" transform="translate(311.78125 0)"/>
     <use xlink:href="#DejaVuSans-52" transform="translate(350.6875 0)"/>
     <use xlink:href="#DejaVuSans-57" transform="translate(411.875 0)"/>
     <use xlink:href="#DejaVuSans-48" transform="translate(451.078125 0)"/>
     <use xlink:href="#DejaVuSans-52" transform="translate(512.609375 0)"/>
     <use xlink:href="#DejaVuSans-50" transform="translate(573.796875 0)"/>
     <use xlink:href="#DejaVuSans-48" transform="translate(671.203125 0)"/>
     <use xlink:href="#DejaVuSans-3" transform="translate(732.734375 0)"/>
     <use xlink:href="#DejaVuSans-38" transform="translate(764.515625 0)"/>
     <use xlink:href="#DejaVuSans-51" transform="translate(837.703125 0)"/>
     <use xlink:href="#DejaVuSans-4c" transform="translate(901.078125 0)"/>
     <use xlink:href="#DejaVuSans-54" transform="translate(928.859375 0)"/>
     <use xlink:href="#DejaVuSans-58" transform="translate(992.34375 0)"/>
     <use xlink:href="#DejaVuSans-48" transform="translate(1055.71875 0)"/>
    </g>
   </g>
   <g id="text_10">
    <!-- 33,786 -->
    <g style="fill: #0072b2" transform="translate(222.015938 231.022967) scale(0.175 -0.175)">
     <defs>
      <path id="DejaVuSans-Bold-f" d="M 653 1209 
L 1778 1209 
L 1778 256 
L 1006 -909 
L 341 -909 
L 653 256 
L 653 1209 
z
" transform="scale(0.015625)"/>
      <path id="DejaVuSans-Bold-1b" d="M 2228 2088 
Q 1891 2088 1709 1903 
Q 1528 1719 1528 1375 
Q 1528 1031 1709 848 
Q 1891 666 2228 666 
Q 2563 666 2741 848 
Q 2919 1031 2919 1375 
Q 2919 1722 2741 1905 
Q 2563 2088 2228 2088 
z
M 1350 2484 
Q 925 2613 709 2878 
Q 494 3144 494 3541 
Q 494 4131 934 4440 
Q 1375 4750 2228 4750 
Q 3075 4750 3515 4442 
Q 3956 4134 3956 3541 
Q 3956 3144 3739 2878 
Q 3522 2613 3097 2484 
Q 3572 2353 3814 2058 
Q 4056 1763 4056 1313 
Q 4056 619 3595 264 
Q 3134 -91 2228 -91 
Q 1319 -91 855 264 
Q 391 619 391 1313 
Q 391 1763 633 2058 
Q 875 2353 1350 2484 
z
M 1631 3419 
Q 1631 3141 1786 2991 
Q 1941 2841 2228 2841 
Q 2509 2841 2662 2991 
Q 2816 3141 2816 3419 
Q 2816 3697 2662 3845 
Q 2509 3994 2228 3994 
Q 1941 3994 1786 3844 
Q 1631 3694 1631 3419 
z
" transform="scale(0.015625)"/>
      <path id="DejaVuSans-Bold-19" d="M 2316 2303 
Q 2000 2303 1842 2098 
Q 1684 1894 1684 1484 
Q 1684 1075 1842 870 
Q 2000 666 2316 666 
Q 2634 666 2792 870 
Q 2950 1075 2950 1484 
Q 2950 1894 2792 2098 
Q 2634 2303 2316 2303 
z
M 3803 4544 
L 3803 3681 
Q 3506 3822 3243 3889 
Q 2981 3956 2731 3956 
Q 2194 3956 1894 3657 
Q 1594 3359 1544 2772 
Q 1750 2925 1990 3001 
Q 2231 3078 2516 3078 
Q 3231 3078 3670 2659 
Q 4109 2241 4109 1563 
Q 4109 813 3618 361 
Q 3128 -91 2303 -91 
Q 1394 -91 895 523 
Q 397 1138 397 2266 
Q 397 3422 980 4083 
Q 1563 4744 2578 4744 
Q 2900 4744 3203 4694 
Q 3506 4644 3803 4544 
z
" transform="scale(0.015625)"/>
     </defs>
     <use xlink:href="#DejaVuSans-Bold-16"/>
     <use xlink:href="#DejaVuSans-Bold-16" transform="translate(69.578125 0)"/>
     <use xlink:href="#DejaVuSans-Bold-f" transform="translate(139.15625 0)"/>
     <use xlink:href="#DejaVuSans-Bold-1a" transform="translate(177.140625 0)"/>
     <use xlink:href="#DejaVuSans-Bold-1b" transform="translate(246.71875 0)"/>
     <use xlink:href="#DejaVuSans-Bold-19" transform="translate(316.296875 0)"/>
    </g>
   </g>
   <g id="text_11">
    <!-- BBB × Catalogue -->
    <g style="fill: #333333" transform="translate(215.259391 274.278439) scale(0.094 -0.094)">
     <defs>
      <path id="DejaVuSans-99" d="M 4488 3438 
L 3059 2003 
L 4488 575 
L 4116 197 
L 2681 1631 
L 1247 197 
L 878 575 
L 2303 2003 
L 878 3438 
L 1247 3816 
L 2681 2381 
L 4116 3816 
L 4488 3438 
z
" transform="scale(0.015625)"/>
      <path id="DejaVuSans-26" d="M 4122 4306 
L 4122 3641 
Q 3803 3938 3442 4084 
Q 3081 4231 2675 4231 
Q 1875 4231 1450 3742 
Q 1025 3253 1025 2328 
Q 1025 1406 1450 917 
Q 1875 428 2675 428 
Q 3081 428 3442 575 
Q 3803 722 4122 1019 
L 4122 359 
Q 3791 134 3420 21 
Q 3050 -91 2638 -91 
Q 1578 -91 968 557 
Q 359 1206 359 2328 
Q 359 3453 968 4101 
Q 1578 4750 2638 4750 
Q 3056 4750 3426 4639 
Q 3797 4528 4122 4306 
z
" transform="scale(0.015625)"/>
      <path id="DejaVuSans-4a" d="M 2906 1791 
Q 2906 2416 2648 2759 
Q 2391 3103 1925 3103 
Q 1463 3103 1205 2759 
Q 947 2416 947 1791 
Q 947 1169 1205 825 
Q 1463 481 1925 481 
Q 2391 481 2648 825 
Q 2906 1169 2906 1791 
z
M 3481 434 
Q 3481 -459 3084 -895 
Q 2688 -1331 1869 -1331 
Q 1566 -1331 1297 -1286 
Q 1028 -1241 775 -1147 
L 775 -588 
Q 1028 -725 1275 -790 
Q 1522 -856 1778 -856 
Q 2344 -856 2625 -561 
Q 2906 -266 2906 331 
L 2906 616 
Q 2728 306 2450 153 
Q 2172 0 1784 0 
Q 1141 0 747 490 
Q 353 981 353 1791 
Q 353 2603 747 3093 
Q 1141 3584 1784 3584 
Q 2172 3584 2450 3431 
Q 2728 3278 2906 2969 
L 2906 3500 
L 3481 3500 
L 3481 434 
z
" transform="scale(0.015625)"/>
     </defs>
     <use xlink:href="#DejaVuSans-25"/>
     <use xlink:href="#DejaVuSans-25" transform="translate(68.609375 0)"/>
     <use xlink:href="#DejaVuSans-25" transform="translate(137.21875 0)"/>
     <use xlink:href="#DejaVuSans-3" transform="translate(205.828125 0)"/>
     <use xlink:href="#DejaVuSans-99" transform="translate(237.609375 0)"/>
     <use xlink:href="#DejaVuSans-3" transform="translate(321.40625 0)"/>
     <use xlink:href="#DejaVuSans-26" transform="translate(353.1875 0)"/>
     <use xlink:href="#DejaVuSans-44" transform="translate(423.015625 0)"/>
     <use xlink:href="#DejaVuSans-57" transform="translate(484.296875 0)"/>
     <use xlink:href="#DejaVuSans-44" transform="translate(523.5 0)"/>
     <use xlink:href="#DejaVuSans-4f" transform="translate(584.78125 0)"/>
     <use xlink:href="#DejaVuSans-52" transform="translate(612.5625 0)"/>
     <use xlink:href="#DejaVuSans-4a" transform="translate(673.75 0)"/>
     <use xlink:href="#DejaVuSans-58" transform="translate(737.234375 0)"/>
     <use xlink:href="#DejaVuSans-48" transform="translate(800.609375 0)"/>
    </g>
   </g>
   <g id="text_12">
    <!-- 3,518 -->
    <g style="fill: #0072b2" transform="translate(228.104023 299.793377) scale(0.175 -0.175)">
     <defs>
      <path id="DejaVuSans-Bold-18" d="M 678 4666 
L 3669 4666 
L 3669 3781 
L 1638 3781 
L 1638 3059 
Q 1775 3097 1914 3117 
Q 2053 3138 2203 3138 
Q 3056 3138 3531 2711 
Q 4006 2284 4006 1522 
Q 4006 766 3489 337 
Q 2972 -91 2053 -91 
Q 1656 -91 1267 -14 
Q 878 63 494 219 
L 494 1166 
Q 875 947 1217 837 
Q 1559 728 1863 728 
Q 2300 728 2551 942 
Q 2803 1156 2803 1522 
Q 2803 1891 2551 2103 
Q 2300 2316 1863 2316 
Q 1603 2316 1309 2248 
Q 1016 2181 678 2041 
L 678 4666 
z
" transform="scale(0.015625)"/>
     </defs>
     <use xlink:href="#DejaVuSans-Bold-16"/>
     <use xlink:href="#DejaVuSans-Bold-f" transform="translate(69.578125 0)"/>
     <use xlink:href="#DejaVuSans-Bold-18" transform="translate(107.5625 0)"/>
     <use xlink:href="#DejaVuSans-Bold-14" transform="translate(177.140625 0)"/>
     <use xlink:href="#DejaVuSans-Bold-1b" transform="translate(246.71875 0)"/>
    </g>
   </g>
   <g id="text_13">
    <!-- NTxPred2 Positive -->
    <g style="fill: #333333" transform="translate(213.552703 343.048849) scale(0.094 -0.094)">
     <defs>
      <path id="DejaVuSans-31" d="M 628 4666 
L 1478 4666 
L 3547 763 
L 3547 4666 
L 4159 4666 
L 4159 0 
L 3309 0 
L 1241 3903 
L 1241 0 
L 628 0 
L 628 4666 
z
" transform="scale(0.015625)"/>
      <path id="DejaVuSans-5b" d="M 3513 3500 
L 2247 1797 
L 3578 0 
L 2900 0 
L 1881 1375 
L 863 0 
L 184 0 
L 1544 1831 
L 300 3500 
L 978 3500 
L 1906 2253 
L 2834 3500 
L 3513 3500 
z
" transform="scale(0.015625)"/>
      <path id="DejaVuSans-33" d="M 1259 4147 
L 1259 2394 
L 2053 2394 
Q 2494 2394 2734 2622 
Q 2975 2850 2975 3272 
Q 2975 3691 2734 3919 
Q 2494 4147 2053 4147 
L 1259 4147 
z
M 628 4666 
L 2053 4666 
Q 2838 4666 3239 4311 
Q 3641 3956 3641 3272 
Q 3641 2581 3239 2228 
Q 2838 1875 2053 1875 
L 1259 1875 
L 1259 0 
L 628 0 
L 628 4666 
z
" transform="scale(0.015625)"/>
      <path id="DejaVuSans-59" d="M 191 3500 
L 800 3500 
L 1894 563 
L 2988 3500 
L 3597 3500 
L 2284 0 
L 1503 0 
L 191 3500 
z
" transform="scale(0.015625)"/>
     </defs>
     <use xlink:href="#DejaVuSans-31"/>
     <use xlink:href="#DejaVuSans-37" transform="translate(74.8125 0)"/>
     <use xlink:href="#DejaVuSans-5b" transform="translate(135.890625 0)"/>
     <use xlink:href="#DejaVuSans-33" transform="translate(195.078125 0)"/>
     <use xlink:href="#DejaVuSans-55" transform="translate(253.625 0)"/>
     <use xlink:href="#DejaVuSans-48" transform="translate(292.53125 0)"/>
     <use xlink:href="#DejaVuSans-47" transform="translate(354.0625 0)"/>
     <use xlink:href="#DejaVuSans-15" transform="translate(417.546875 0)"/>
     <use xlink:href="#DejaVuSans-3" transform="translate(481.171875 0)"/>
     <use xlink:href="#DejaVuSans-33" transform="translate(512.953125 0)"/>
     <use xlink:href="#DejaVuSans-52" transform="translate(569.6875 0)"/>
     <use xlink:href="#DejaVuSans-56" transform="translate(630.875 0)"/>
     <use xlink:href="#DejaVuSans-4c" transform="translate(682.96875 0)"/>
     <use xlink:href="#DejaVuSans-57" transform="translate(710.75 0)"/>
     <use xlink:href="#DejaVuSans-4c" transform="translate(749.953125 0)"/>
     <use xlink:href="#DejaVuSans-59" transform="translate(777.734375 0)"/>
     <use xlink:href="#DejaVuSans-48" transform="translate(836.921875 0)"/>
    </g>
   </g>
   <g id="text_14">
    <!-- 923 -->
    <g style="fill: #0072b2" transform="translate(237.515742 368.563786) scale(0.175 -0.175)">
     <defs>
      <path id="DejaVuSans-Bold-1c" d="M 641 103 
L 641 966 
Q 928 831 1190 764 
Q 1453 697 1709 697 
Q 2247 697 2547 995 
Q 2847 1294 2900 1881 
Q 2688 1725 2447 1647 
Q 2206 1569 1925 1569 
Q 1209 1569 770 1986 
Q 331 2403 331 3084 
Q 331 3838 820 4291 
Q 1309 4744 2131 4744 
Q 3044 4744 3544 4128 
Q 4044 3513 4044 2388 
Q 4044 1231 3459 570 
Q 2875 -91 1856 -91 
Q 1528 -91 1228 -42 
Q 928 6 641 103 
z
M 2125 2350 
Q 2441 2350 2600 2554 
Q 2759 2759 2759 3169 
Q 2759 3575 2600 3781 
Q 2441 3988 2125 3988 
Q 1809 3988 1650 3781 
Q 1491 3575 1491 3169 
Q 1491 2759 1650 2554 
Q 1809 2350 2125 2350 
z
" transform="scale(0.015625)"/>
     </defs>
     <use xlink:href="#DejaVuSans-Bold-1c"/>
     <use xlink:href="#DejaVuSans-Bold-15" transform="translate(69.578125 0)"/>
     <use xlink:href="#DejaVuSans-Bold-16" transform="translate(139.15625 0)"/>
    </g>
   </g>
   <g id="text_15">
    <!-- Mebipred + AnOxPePred -->
    <g style="fill: #333333" transform="translate(198.239516 411.819258) scale(0.094 -0.094)">
     <defs>
      <path id="DejaVuSans-45" d="M 3116 1747 
Q 3116 2381 2855 2742 
Q 2594 3103 2138 3103 
Q 1681 3103 1420 2742 
Q 1159 2381 1159 1747 
Q 1159 1113 1420 752 
Q 1681 391 2138 391 
Q 2594 391 2855 752 
Q 3116 1113 3116 1747 
z
M 1159 2969 
Q 1341 3281 1617 3432 
Q 1894 3584 2278 3584 
Q 2916 3584 3314 3078 
Q 3713 2572 3713 1747 
Q 3713 922 3314 415 
Q 2916 -91 2278 -91 
Q 1894 -91 1617 61 
Q 1341 213 1159 525 
L 1159 0 
L 581 0 
L 581 4863 
L 1159 4863 
L 1159 2969 
z
" transform="scale(0.015625)"/>
      <path id="DejaVuSans-e" d="M 2944 4013 
L 2944 2272 
L 4684 2272 
L 4684 1741 
L 2944 1741 
L 2944 0 
L 2419 0 
L 2419 1741 
L 678 1741 
L 678 2272 
L 2419 2272 
L 2419 4013 
L 2944 4013 
z
" transform="scale(0.015625)"/>
      <path id="DejaVuSans-24" d="M 2188 4044 
L 1331 1722 
L 3047 1722 
L 2188 4044 
z
M 1831 4666 
L 2547 4666 
L 4325 0 
L 3669 0 
L 3244 1197 
L 1141 1197 
L 716 0 
L 50 0 
L 1831 4666 
z
" transform="scale(0.015625)"/>
     </defs>
     <use xlink:href="#DejaVuSans-30"/>
     <use xlink:href="#DejaVuSans-48" transform="translate(86.28125 0)"/>
     <use xlink:href="#DejaVuSans-45" transform="translate(147.8125 0)"/>
     <use xlink:href="#DejaVuSans-4c" transform="translate(211.296875 0)"/>
     <use xlink:href="#DejaVuSans-53" transform="translate(239.078125 0)"/>
     <use xlink:href="#DejaVuSans-55" transform="translate(302.5625 0)"/>
     <use xlink:href="#DejaVuSans-48" transform="translate(341.46875 0)"/>
     <use xlink:href="#DejaVuSans-47" transform="translate(403 0)"/>
     <use xlink:href="#DejaVuSans-3" transform="translate(466.484375 0)"/>
     <use xlink:href="#DejaVuSans-e" transform="translate(498.265625 0)"/>
     <use xlink:href="#DejaVuSans-3" transform="translate(582.0625 0)"/>
     <use xlink:href="#DejaVuSans-24" transform="translate(613.84375 0)"/>
     <use xlink:href="#DejaVuSans-51" transform="translate(682.25 0)"/>
     <use xlink:href="#DejaVuSans-32" transform="translate(745.625 0)"/>
     <use xlink:href="#DejaVuSans-5b" transform="translate(824.34375 0)"/>
     <use xlink:href="#DejaVuSans-33" transform="translate(883.53125 0)"/>
     <use xlink:href="#DejaVuSans-48" transform="translate(940.265625 0)"/>
     <use xlink:href="#DejaVuSans-33" transform="translate(1001.796875 0)"/>
     <use xlink:href="#DejaVuSans-55" transform="translate(1060.34375 0)"/>
     <use xlink:href="#DejaVuSans-48" transform="translate(1099.25 0)"/>
     <use xlink:href="#DejaVuSans-47" transform="translate(1160.78125 0)"/>
    </g>
   </g>
   <g id="text_16">
    <!-- 12 Peptides -->
    <g style="fill: #0072b2" transform="translate(200.69707 437.075074) scale(0.165 -0.165)">
     <defs>
      <path id="DejaVuSans-Bold-53" d="M 1656 506 
L 1656 -1331 
L 538 -1331 
L 538 3500 
L 1656 3500 
L 1656 2988 
Q 1888 3294 2169 3439 
Q 2450 3584 2816 3584 
Q 3463 3584 3878 3070 
Q 4294 2556 4294 1747 
Q 4294 938 3878 423 
Q 3463 -91 2816 -91 
Q 2450 -91 2169 54 
Q 1888 200 1656 506 
z
M 2400 2772 
Q 2041 2772 1848 2508 
Q 1656 2244 1656 1747 
Q 1656 1250 1848 986 
Q 2041 722 2400 722 
Q 2759 722 2948 984 
Q 3138 1247 3138 1747 
Q 3138 2247 2948 2509 
Q 2759 2772 2400 2772 
z
" transform="scale(0.015625)"/>
     </defs>
     <use xlink:href="#DejaVuSans-Bold-14"/>
     <use xlink:href="#DejaVuSans-Bold-15" transform="translate(69.578125 0)"/>
     <use xlink:href="#DejaVuSans-Bold-3" transform="translate(139.15625 0)"/>
     <use xlink:href="#DejaVuSans-Bold-33" transform="translate(173.96875 0)"/>
     <use xlink:href="#DejaVuSans-Bold-48" transform="translate(247.265625 0)"/>
     <use xlink:href="#DejaVuSans-Bold-53" transform="translate(315.09375 0)"/>
     <use xlink:href="#DejaVuSans-Bold-57" transform="translate(386.671875 0)"/>
     <use xlink:href="#DejaVuSans-Bold-4c" transform="translate(434.46875 0)"/>
     <use xlink:href="#DejaVuSans-Bold-47" transform="translate(468.75 0)"/>
     <use xlink:href="#DejaVuSans-Bold-48" transform="translate(540.328125 0)"/>
     <use xlink:href="#DejaVuSans-Bold-56" transform="translate(608.15625 0)"/>
    </g>
   </g>
   <g id="text_17">
    <!-- Docking -->
    <g style="fill: #111111" transform="translate(227.37082 484.321462) scale(0.125 -0.125)">
     <defs>
      <path id="DejaVuSans-Bold-27" d="M 1791 3756 
L 1791 909 
L 2222 909 
Q 2959 909 3348 1275 
Q 3738 1641 3738 2338 
Q 3738 3031 3350 3393 
Q 2963 3756 2222 3756 
L 1791 3756 
z
M 588 4666 
L 1856 4666 
Q 2919 4666 3439 4514 
Q 3959 4363 4331 4000 
Q 4659 3684 4818 3271 
Q 4978 2859 4978 2338 
Q 4978 1809 4818 1395 
Q 4659 981 4331 666 
Q 3956 303 3431 151 
Q 2906 0 1856 0 
L 588 0 
L 588 4666 
z
" transform="scale(0.015625)"/>
      <path id="DejaVuSans-Bold-46" d="M 3366 3391 
L 3366 2478 
Q 3138 2634 2908 2709 
Q 2678 2784 2431 2784 
Q 1963 2784 1702 2511 
Q 1441 2238 1441 1747 
Q 1441 1256 1702 982 
Q 1963 709 2431 709 
Q 2694 709 2930 787 
Q 3166 866 3366 1019 
L 3366 103 
Q 3103 6 2833 -42 
Q 2563 -91 2291 -91 
Q 1344 -91 809 395 
Q 275 881 275 1747 
Q 275 2613 809 3098 
Q 1344 3584 2291 3584 
Q 2566 3584 2833 3536 
Q 3100 3488 3366 3391 
z
" transform="scale(0.015625)"/>
      <path id="DejaVuSans-Bold-4e" d="M 538 4863 
L 1656 4863 
L 1656 2216 
L 2944 3500 
L 4244 3500 
L 2534 1894 
L 4378 0 
L 3022 0 
L 1656 1459 
L 1656 0 
L 538 0 
L 538 4863 
z
" transform="scale(0.015625)"/>
      <path id="DejaVuSans-Bold-4a" d="M 2919 594 
Q 2688 288 2409 144 
Q 2131 0 1766 0 
Q 1125 0 706 504 
Q 288 1009 288 1791 
Q 288 2575 706 3076 
Q 1125 3578 1766 3578 
Q 2131 3578 2409 3434 
Q 2688 3291 2919 2981 
L 2919 3500 
L 4044 3500 
L 4044 353 
Q 4044 -491 3511 -936 
Q 2978 -1381 1966 -1381 
Q 1638 -1381 1331 -1331 
Q 1025 -1281 716 -1178 
L 716 -306 
Q 1009 -475 1290 -558 
Q 1572 -641 1856 -641 
Q 2406 -641 2662 -400 
Q 2919 -159 2919 353 
L 2919 594 
z
M 2181 2772 
Q 1834 2772 1640 2515 
Q 1447 2259 1447 1791 
Q 1447 1309 1634 1061 
Q 1822 813 2181 813 
Q 2531 813 2725 1069 
Q 2919 1325 2919 1791 
Q 2919 2259 2725 2515 
Q 2531 2772 2181 2772 
z
" transform="scale(0.015625)"/>
     </defs>
     <use xlink:href="#DejaVuSans-Bold-27"/>
     <use xlink:href="#DejaVuSans-Bold-52" transform="translate(83.015625 0)"/>
     <use xlink:href="#DejaVuSans-Bold-46" transform="translate(151.71875 0)"/>
     <use xlink:href="#DejaVuSans-Bold-4e" transform="translate(211 0)"/>
     <use xlink:href="#DejaVuSans-Bold-4c" transform="translate(277.5 0)"/>
     <use xlink:href="#DejaVuSans-Bold-51" transform="translate(311.78125 0)"/>
     <use xlink:href="#DejaVuSans-Bold-4a" transform="translate(382.96875 0)"/>
    </g>
   </g>
   <g id="text_18">
    <!-- 12 Peptides -->
    <g style="fill: #0072b2" transform="translate(202.36625 514.494783) scale(0.16 -0.16)">
     <use xlink:href="#DejaVuSans-Bold-14"/>
     <use xlink:href="#DejaVuSans-Bold-15" transform="translate(69.578125 0)"/>
     <use xlink:href="#DejaVuSans-Bold-3" transform="translate(139.15625 0)"/>
     <use xlink:href="#DejaVuSans-Bold-33" transform="translate(173.96875 0)"/>
     <use xlink:href="#DejaVuSans-Bold-48" transform="translate(247.265625 0)"/>
     <use xlink:href="#DejaVuSans-Bold-53" transform="translate(315.09375 0)"/>
     <use xlink:href="#DejaVuSans-Bold-57" transform="translate(386.671875 0)"/>
     <use xlink:href="#DejaVuSans-Bold-4c" transform="translate(434.46875 0)"/>
     <use xlink:href="#DejaVuSans-Bold-47" transform="translate(468.75 0)"/>
     <use xlink:href="#DejaVuSans-Bold-48" transform="translate(540.328125 0)"/>
     <use xlink:href="#DejaVuSans-Bold-56" transform="translate(608.15625 0)"/>
    </g>
   </g>
   <g id="text_19">
    <!-- MD -->
    <g style="fill: #111111" transform="translate(414.690583 484.320974) scale(0.125 -0.125)">
     <defs>
      <path id="DejaVuSans-Bold-30" d="M 588 4666 
L 2119 4666 
L 3181 2169 
L 4250 4666 
L 5778 4666 
L 5778 0 
L 4641 0 
L 4641 3413 
L 3566 897 
L 2803 897 
L 1728 3413 
L 1728 0 
L 588 0 
L 588 4666 
z
" transform="scale(0.015625)"/>
     </defs>
     <use xlink:href="#DejaVuSans-Bold-30"/>
     <use xlink:href="#DejaVuSans-Bold-27" transform="translate(99.515625 0)"/>
    </g>
   </g>
   <g id="text_20">
    <!-- 3 Complexes -->
    <g style="fill: #009e73" transform="translate(368.801286 514.494783) scale(0.16 -0.16)">
     <defs>
      <path id="DejaVuSans-Bold-26" d="M 4288 256 
Q 3956 84 3597 -3 
Q 3238 -91 2847 -91 
Q 1681 -91 1000 561 
Q 319 1213 319 2328 
Q 319 3447 1000 4098 
Q 1681 4750 2847 4750 
Q 3238 4750 3597 4662 
Q 3956 4575 4288 4403 
L 4288 3438 
Q 3953 3666 3628 3772 
Q 3303 3878 2944 3878 
Q 2300 3878 1931 3465 
Q 1563 3053 1563 2328 
Q 1563 1606 1931 1193 
Q 2300 781 2944 781 
Q 3303 781 3628 887 
Q 3953 994 4288 1222 
L 4288 256 
z
" transform="scale(0.015625)"/>
      <path id="DejaVuSans-Bold-5b" d="M 1422 1791 
L 159 3500 
L 1344 3500 
L 2059 2463 
L 2784 3500 
L 3969 3500 
L 2706 1797 
L 4031 0 
L 2847 0 
L 2059 1106 
L 1281 0 
L 97 0 
L 1422 1791 
z
" transform="scale(0.015625)"/>
     </defs>
     <use xlink:href="#DejaVuSans-Bold-16"/>
     <use xlink:href="#DejaVuSans-Bold-3" transform="translate(69.578125 0)"/>
     <use xlink:href="#DejaVuSans-Bold-26" transform="translate(104.390625 0)"/>
     <use xlink:href="#DejaVuSans-Bold-52" transform="translate(177.78125 0)"/>
     <use xlink:href="#DejaVuSans-Bold-50" transform="translate(246.484375 0)"/>
     <use xlink:href="#DejaVuSans-Bold-53" transform="translate(350.6875 0)"/>
     <use xlink:href="#DejaVuSans-Bold-4f" transform="translate(422.265625 0)"/>
     <use xlink:href="#DejaVuSans-Bold-48" transform="translate(456.546875 0)"/>
     <use xlink:href="#DejaVuSans-Bold-5b" transform="translate(524.375 0)"/>
     <use xlink:href="#DejaVuSans-Bold-48" transform="translate(588.875 0)"/>
     <use xlink:href="#DejaVuSans-Bold-56" transform="translate(656.703125 0)"/>
    </g>
   </g>
  </g>
 </g>
</svg>
